<svg xmlns="http://www.w3.org/2000/svg" viewBox="0 0 64 64" fill="none">
  <rect width="64" height="64" rx="18" fill="#0A1622" />
  <rect x="6" y="6" width="52" height="52" rx="14" stroke="url(#stroke)" stroke-width="1.5" />
  <path
    d="M20 24.5C20 20.91 22.91 18 26.5 18H37.5C41.09 18 44 20.91 44 24.5V39.5C44 43.09 41.09 46 37.5 46H26.5C22.91 46 20 43.09 20 39.5V24.5Z"
    fill="url(#surface)"
  />
  <path
    d="M25.5 26.5C25.5 24.29 27.29 22.5 29.5 22.5H34.5C36.71 22.5 38.5 24.29 38.5 26.5V37.5C38.5 39.71 36.71 41.5 34.5 41.5H29.5C27.29 41.5 25.5 39.71 25.5 37.5V26.5Z"
    stroke="url(#outline)"
    stroke-width="2.2"
  />
  <path
    d="M17 31.5C17 23.49 23.49 17 31.5 17H32.5"
    stroke="url(#accent)"
    stroke-width="3"
    stroke-linecap="round"
  />
  <path
    d="M47 32.5C47 40.51 40.51 47 32.5 47H31.5"
    stroke="url(#accent)"
    stroke-width="3"
    stroke-linecap="round"
  />
  <defs>
    <linearGradient id="surface" x1="18" y1="18" x2="47" y2="46" gradientUnits="userSpaceOnUse">
      <stop stop-color="#172535" />
      <stop offset="1" stop-color="#102131" />
    </linearGradient>
    <linearGradient id="stroke" x1="8" y1="8" x2="56" y2="56" gradientUnits="userSpaceOnUse">
      <stop stop-color="#9CD7FF" stop-opacity=".55" />
      <stop offset="1" stop-color="#E7D19B" stop-opacity=".4" />
    </linearGradient>
    <linearGradient id="outline" x1="25.5" y1="22.5" x2="38.5" y2="41.5" gradientUnits="userSpaceOnUse">
      <stop stop-color="#EFD9A8" />
      <stop offset="1" stop-color="#9DD6FF" />
    </linearGradient>
    <linearGradient id="accent" x1="17" y1="17" x2="47" y2="47" gradientUnits="userSpaceOnUse">
      <stop stop-color="#F0DEB4" />
      <stop offset="1" stop-color="#8FD4FF" />
    </linearGradient>
  </defs>
</svg>
